<svg xmlns="http://www.w3.org/2000/svg" fill="none" viewBox="0 0 128 128">
    <path d="M50.4 78.5a75.1 75.1 0 0 0-28.5 6.9l24.2-65.7c.7-2 1.9-3.2 3.4-3.2h29c1.5 0 2.7 1.2 3.4 3.2l24.2 65.7s-11.6-7-28.5-7L67 45.5c-.4-1.7-1.6-2.8-2.9-2.8-1.3 0-2.5 1.1-2.9 2.7L50.4 78.5Zm-1.1 28.2Zm-4.2-20.2c-2 6.6-.6 15.8 4.2 20.2a17.5 17.5 0 0 1 .2-.7 5.5 5.5 0 0 1 5.7-4.5c2.8.1 4.3 1.5 4.7 4.7.2 1.1.2 2.3.2 3.5v.4c0 2.7.7 5.2 2.2 7.4a13 13 0 0 0 5.7 4.9v-.3l-.2-.3c-1.8-5.6-.5-9.5 4.4-12.8l1.5-1a73 73 0 0 0 3.2-2.2 16 16 0 0 0 6.8-11.4c.3-2 .1-4-.6-6l-.8.6-12.6 9.5c-2.3 1.7-4.6 2-6.9-.1-2.3-2-2.1-4.4.2-6.7l12.9-13.9a47.4 47.4 0 0 0-8.6-2.3c-13.2-2.2-23.7.4-30.6 7.3Zm13.9 54.7a15.8 15.8 0 0 1-4.7-.5c-2.8-.9-5-2.5-6.7-4.8a18.2 18.2 0 0 1-2.7-10.5c0-.6 0-1.2.2-1.8l.4-1.3c.3-1 .7-2 1.1-3 1.4-3.2 4.1-5.1 7.6-5.2 2.8-.1 5.6.5 8.1 1.8l2.5 1.3c3.6 2 7 3.5 11.2 3.8a26.2 26.2 0 0 0 15.9-3.5c1.8-1.1 3.6-2.4 5.3-3.8 1.7-1.4 3.3-3 4.9-4.6l.4-.4a20 20 0 0 0 3.5-4.6c1-1.9 1.6-4 1.6-6.3 0-3.5-.9-6.8-2.6-9.8a24.6 24.6 0 0 0-6.4-7 36.6 36.6 0 0 0-9-4.8c-3.4-1.2-7-2-10.7-2.4a62.5 62.5 0 0 0-11.5.1c-3.8.4-7.6 1.1-11.2 2.3-3.7 1.2-7.2 2.8-10.5 4.9-3.3 2.1-6.3 4.6-9 7.5a46.6 46.6 0 0 0-6.6 9.4c-1.7 3.2-3 6.6-3.8 10.2-.8 3.5-1.2 7.2-1.2 10.9 0 7.5 1.4 14.7 4.2 21.5 2.8 6.8 6.8 12.9 11.9 18.2a60.8 60.8 0 0 0 18 13c6.7 3 14 4.5 21.5 4.5 7.5 0 14.8-1.5 21.5-4.5a60.8 60.8 0 0 0 18-13 60.8 60.8 0 0 0 13-18c3-6.8 4.5-14 4.5-21.5 0-3.7-.4-7.4-1.2-10.9-.8-3.6-2.1-7-3.8-10.2a46.6 46.6 0 0 0-6.6-9.4 46.6 46.6 0 0 0-9-7.5c-3.3-2.1-6.8-3.7-10.5-4.9-3.6-1.2-7.4-1.9-11.2-2.3a62.5 62.5 0 0 0-11.5-.1c-3.7.4-7.3 1.2-10.7 2.4a36.6 36.6 0 0 0-9 4.8 24.6 24.6 0 0 0-6.4 7c-1.7 3-2.6 6.3-2.6 9.8 0 2.3.6 4.4 1.6 6.3a20 20 0 0 0 3.5 4.6l.4.4c1.6 1.6 3.2 3.2 4.9 4.6 1.7 1.4 3.5 2.7 5.3 3.8a26.2 26.2 0 0 0 15.9 3.5c4.2-.3 7.6-1.8 11.2-3.8l2.5-1.3c2.5-1.3 5.3-1.9 8.1-1.8 3.5.1 6.2 2 7.6 5.2.4 1 .8 2 1.1 3l.4 1.3c.2.6.2 1.2.2 1.8 0 3.7-1 7.2-2.7 10.5-1.7 2.3-3.9 3.9-6.7 4.8-2.8.9-5.7.9-8.6 0Z" fill="url(#gradient)" />
    <defs>
        <linearGradient id="gradient" x1="0" x2="128" y1="0" y2="128" gradientUnits="userSpaceOnUse">
            <stop stop-color="#4F46E5"/>
            <stop offset="1" stop-color="#8B5CF6"/>
        </linearGradient>
    </defs>
</svg>
